<svg xmlns="http://www.w3.org/2000/svg" width="800" height="800" viewBox="0 0 800 800" version="1.1"><path d="M 74 47.487 L 74 71.973 107.668 72.237 L 141.337 72.500 166.918 215.500 C 190.568 347.700, 192.523 357.858, 192.808 350 C 192.978 345.325, 192.161 299.491, 190.994 248.147 C 189.827 196.804, 189.039 154.627, 189.244 154.422 C 189.449 154.218, 206.240 217.261, 226.558 294.519 C 246.876 371.777, 263.735 434.991, 264.021 434.994 C 264.708 435.002, 311.096 208.210, 311.042 205.109 C 311.019 203.794, 300.425 162.517, 287.500 113.384 C 274.575 64.250, 264 23.814, 264 23.525 C 264 23.236, 221.250 23, 169 23 L 74 23 74 47.487 M 531.256 30.750 C 527.986 43.018, 486.874 203.306, 481.176 226 C 478.346 237.275, 473.965 254.375, 471.441 264 C 464.057 292.157, 449.654 347.861, 440.413 384 C 435.702 402.425, 431.017 419.975, 430.003 423 C 428.989 426.025, 422.046 452.125, 414.575 481 C 407.104 509.875, 400.640 534.790, 400.210 536.366 C 399.584 538.659, 396.453 527.863, 384.548 482.366 C 376.364 451.090, 369.379 424.923, 369.026 424.217 C 368.673 423.511, 357.649 474.469, 344.529 537.457 L 320.674 651.980 329.700 686.240 L 338.727 720.500 398.013 720.500 L 457.299 720.500 464.691 692.500 C 468.757 677.100, 472.973 660.544, 474.060 655.708 C 475.146 650.873, 485.442 611.273, 496.938 567.708 C 508.435 524.144, 520.607 477.733, 523.988 464.574 C 527.369 451.414, 531.167 437.464, 532.428 433.574 C 533.689 429.683, 550.843 365.197, 570.547 290.270 C 590.252 215.344, 606.540 154.207, 606.743 154.410 C 606.946 154.613, 605.984 206.241, 604.606 269.139 C 603.228 332.038, 601.835 399.700, 601.511 419.500 C 600.636 472.978, 597.254 624.987, 595.354 696.250 L 594.694 721 658.347 721 L 722 721 722 372 L 722 23 627.661 23 L 533.322 23 531.256 30.750 M 74.079 547.250 L 74 721 110.608 721 L 147.217 721 146.637 718.690 C 146.318 717.420, 130.054 639.682, 110.494 545.940 C 90.934 452.198, 74.757 375.050, 74.544 374.500 C 74.332 373.950, 74.122 451.688, 74.079 547.250" stroke="none" fill="#246433" fill-rule="evenodd"/><path d="M 11.508 74.243 C 12.876 79.865, 144.264 708.195, 149.519 734.250 L 152.293 748 226.579 748 C 296.471 748, 300.895 747.896, 301.365 746.250 C 301.641 745.288, 306.161 723.575, 311.410 698 C 322.250 645.189, 362.222 453.219, 382.941 354.470 C 390.561 318.154, 397.180 286.493, 397.651 284.112 C 398.413 280.260, 400.041 287.369, 412.433 348.642 C 420.092 386.514, 426.774 419.457, 427.281 421.848 C 428.866 429.317, 428.757 429.637, 440.933 382 C 454.516 328.864, 468.639 274.417, 480.102 231 L 486.043 208.500 471.827 140.250 L 457.612 72 398.056 72.006 L 338.500 72.012 324.644 140.256 C 309.259 216.034, 271.949 398.094, 248.697 510.856 C 240.378 551.202, 233.433 583.800, 233.266 583.297 C 232.961 582.384, 216.074 488.634, 167.104 216 L 141.329 72.500 76.144 72.243 L 10.958 71.986 11.508 74.243 M 722.079 227.250 C 722.122 312.638, 722.336 382.050, 722.554 381.500 C 722.772 380.950, 738.048 311.875, 756.501 228 C 774.953 144.125, 790.295 74.713, 790.593 73.750 C 791.102 72.107, 789.028 72, 756.567 72 L 722 72 722.079 227.250 M 583.615 482.750 C 573.837 535.962, 565.533 580.522, 565.162 581.770 C 564.727 583.233, 559.016 557.800, 549.106 510.270 C 540.647 469.697, 533.412 435.636, 533.028 434.580 C 532.465 433.031, 532.129 433.418, 531.294 436.580 C 530.725 438.736, 527.698 450.400, 524.568 462.500 C 521.437 474.600, 508.961 522.075, 496.842 568 C 484.723 613.925, 474.803 652.850, 474.798 654.500 C 474.793 656.150, 478.887 677.689, 483.895 702.363 C 488.903 727.038, 493 747.401, 493 747.613 C 493 747.826, 526.495 748, 567.433 748 C 637.461 748, 641.895 747.896, 642.371 746.250 C 642.649 745.288, 643.821 740, 644.974 734.500 C 646.127 729, 647.310 723.712, 647.603 722.750 C 648.100 721.114, 646.398 721, 621.415 721 L 594.694 721 595.354 696.250 C 596.888 638.726, 600.134 495.369, 601.593 420.750 C 601.967 401.637, 602.075 386, 601.833 386 C 601.592 386, 593.394 429.538, 583.615 482.750" stroke="none" fill="#6bcb04" fill-rule="evenodd"/></svg>